# xmcd
#
# Track frame offsets: 
#        150
#        13092
#        25910
#        34800
#        48700
#        58200
#        69950
#        78400
#        89675
#        101462
#
# Disc length: 1524 seconds
#
# Revision: 3
# Processed by: cddbd v1.5.2PL0 Copyright (c) Steve Scherf et al.
# Submitted via: ExactAudioCopy v0.99pb5
#
DISCID=8205f20a
DTITLE=JIM REEVES - PURE GOLD, VOLUME ONE
DYEAR=1978
DGENRE=Country
TTITLE0=Four Walls
TTITLE1=Goodnight Irene
TTITLE2=Why Do I Love You (Melody Of Love)
TTITLE3=Auf Wiederseh'n Sweetheart
TTITLE4=The Hawaiian Wedding Song
TTITLE5=Welcome To My World
TTITLE6=From A Jack To A King
TTITLE7=My Happiness
TTITLE8=Mona Lisa
TTITLE9=You'll Never Know
EXTD=YEAR: 1978
EXTT0=(Moore-Campbell) BMI
EXTT1=(Ledbetter-Lomax) BMI
EXTT2=(Davis-Englemann) ASCAP Produced by Chet Atkins
EXTT3=(Sexton-Turner-Storch) BMI Produced by Anita Kerr
EXTT4=(Hoffman-Manning-King) ASCAP Produced by Chet Atkins
EXTT5=(Winkler-Hathcock) BMI Produced by Chet Atkins
EXTT6=(Miller) BMI Produced by Jerry Bradley, Overdub Production
EXTT7=(Bergantine-Peterson) BMI
EXTT8=(Livingston-Evans) ASCAP
EXTT9=(Gordon-Warren) ASCAP Produced by Jerry Bradley, Overdub Product
EXTT9=ion. Arranged by Anita Kerr
PLAYORDER=
